<svg width="313" height="240" viewBox="0 0 313 240" fill="none" xmlns="http://www.w3.org/2000/svg">
<g clip-path="url(#clip0)">
<path d="M72.0711 166.094L96.3046 128.064L42.0328 93.6249L14.0055 137.609L58.8951 166.094H72.0711Z" fill="#F0F0F0"/>
<path d="M106.412 177.958H46.3849V165.899H106.412V177.958ZM47.1645 177.18H105.633V166.677H47.1645V177.18Z" fill="#3F3D56"/>
<path d="M99.0063 175.818C101.159 175.818 102.904 174.077 102.904 171.929C102.904 169.78 101.159 168.039 99.0063 168.039C96.8535 168.039 95.1084 169.78 95.1084 171.929C95.1084 174.077 96.8535 175.818 99.0063 175.818Z" fill="url(#paint0_linear)"/>
<path d="M88.0922 175.818C90.2449 175.818 91.9901 174.077 91.9901 171.929C91.9901 169.78 90.2449 168.039 88.0922 168.039C85.9395 168.039 84.1943 169.78 84.1943 171.929C84.1943 174.077 85.9395 175.818 88.0922 175.818Z" fill="url(#paint1_linear)"/>
<path d="M77.178 175.818C79.3308 175.818 81.0759 174.077 81.0759 171.929C81.0759 169.78 79.3308 168.039 77.178 168.039C75.0253 168.039 73.2802 169.78 73.2802 171.929C73.2802 174.077 75.0253 175.818 77.178 175.818Z" fill="url(#paint2_linear)"/>
<path d="M66.264 175.818C68.4167 175.818 70.1619 174.077 70.1619 171.929C70.1619 169.78 68.4167 168.039 66.264 168.039C64.1112 168.039 62.3661 169.78 62.3661 171.929C62.3661 174.077 64.1112 175.818 66.264 175.818Z" fill="url(#paint3_linear)"/>
<path d="M55.3499 175.818C57.5026 175.818 59.2478 174.077 59.2478 171.929C59.2478 169.78 57.5026 168.039 55.3499 168.039C53.1972 168.039 51.452 169.78 51.452 171.929C51.452 174.077 53.1972 175.818 55.3499 175.818Z" fill="url(#paint4_linear)"/>
<path d="M177.743 43.9546V14.3922H192.555V0H120.055V72.3501H182.031V65.2763C182.031 63.9576 182.291 62.6519 182.797 61.4337C183.303 60.2154 184.044 59.1085 184.978 58.176C185.913 57.2436 187.022 56.504 188.243 55.9994C189.463 55.4947 190.772 55.235 192.093 55.235H192.555V43.9546H177.743Z" fill="#F0F0F0"/>
<path d="M258.04 186.71H209.706V196.823H258.04V186.71Z" fill="url(#paint5_linear)"/>
<path d="M268.564 136.921H197.623V146.256H268.564V136.921Z" fill="#F0F0F0"/>
<path d="M303.255 239.222H0V240H303.255V239.222Z" fill="#3F3D56"/>
<path d="M280.72 240H192.093C189.322 239.997 186.665 238.897 184.706 236.942C182.747 234.986 181.644 232.335 181.641 229.57V65.2763C181.644 62.511 182.747 59.8598 184.706 57.9045C186.665 55.9491 189.322 54.8492 192.093 54.846H280.72C283.491 54.8492 286.148 55.9491 288.107 57.9045C290.066 59.8598 291.169 62.511 291.172 65.2763V229.57C291.169 232.335 290.066 234.986 288.107 236.942C286.147 238.897 283.491 239.997 280.72 240ZM192.093 55.624C189.529 55.6269 187.07 56.6448 185.257 58.4543C183.444 60.2638 182.424 62.7172 182.421 65.2763V229.57C182.424 232.129 183.444 234.582 185.257 236.392C187.07 238.201 189.529 239.219 192.093 239.222H280.72C283.284 239.219 285.743 238.201 287.556 236.392C289.369 234.582 290.389 232.129 290.392 229.57V65.2763C290.389 62.7172 289.369 60.2638 287.556 58.4543C285.743 56.6448 283.284 55.6269 280.72 55.624H192.093Z" fill="#3F3D56"/>
<path d="M225.882 62.6256C225.42 62.6256 224.968 62.4887 224.583 62.2323C224.198 61.9758 223.899 61.6113 223.722 61.1849C223.545 60.7584 223.498 60.2892 223.589 59.8364C223.679 59.3837 223.902 58.9678 224.229 58.6414C224.556 58.315 224.972 58.0928 225.426 58.0027C225.88 57.9126 226.35 57.9589 226.777 58.1355C227.205 58.3122 227.57 58.6113 227.827 58.9951C228.084 59.3789 228.221 59.8301 228.221 60.2917C228.22 60.9105 227.974 61.5038 227.535 61.9413C227.097 62.3788 226.502 62.6249 225.882 62.6256ZM225.882 58.7358C225.574 58.7358 225.272 58.8271 225.016 58.998C224.76 59.169 224.56 59.412 224.442 59.6963C224.324 59.9806 224.293 60.2935 224.353 60.5953C224.413 60.8971 224.562 61.1743 224.78 61.3919C224.998 61.6095 225.276 61.7577 225.578 61.8178C225.881 61.8778 226.194 61.847 226.479 61.7292C226.764 61.6115 227.007 61.412 227.179 61.1562C227.35 60.9003 227.441 60.5995 227.441 60.2917C227.441 59.8792 227.277 59.4837 226.984 59.192C226.692 58.9003 226.296 58.7363 225.882 58.7358Z" fill="#3F3D56"/>
<path d="M248.88 59.9028H231.729V60.6807H248.88V59.9028Z" fill="#3F3D56"/>
<path d="M284.156 66.1264V97.2448C275.886 97.2444 267.954 93.9657 262.106 88.13C256.258 82.2943 252.973 74.3794 252.973 66.1264H284.156Z" fill="url(#paint6_linear)"/>
<path d="M284.545 229.498H188.268V65.7374H284.545V229.498ZM189.047 228.72H283.766V66.5154H189.047V228.72Z" fill="#3F3D56"/>
<path opacity="0.1" d="M261.548 95.2998C267.36 95.2998 272.072 90.5977 272.072 84.7974C272.072 78.9971 267.36 74.295 261.548 74.295C255.735 74.295 251.024 78.9971 251.024 84.7974C251.024 90.5977 255.735 95.2998 261.548 95.2998Z" fill="black"/>
<path d="M259.989 96.4668C265.801 96.4668 270.513 91.7647 270.513 85.9643C270.513 80.164 265.801 75.4619 259.989 75.4619C254.176 75.4619 249.464 80.164 249.464 85.9643C249.464 91.7647 254.176 96.4668 259.989 96.4668Z" fill="url(#paint7_linear)"/>
<path d="M207.367 72.3501H192.555V77.7958H207.367V72.3501Z" fill="#3F3D56"/>
<path d="M215.553 124.084H200.741V129.53H215.553V124.084Z" fill="#3F3D56"/>
<path d="M272.462 144.311H200.741V134.198H272.462V144.311ZM201.521 143.533H271.682V134.976H201.521V143.533Z" fill="#3F3D56"/>
<path d="M268.564 166.483H197.623V175.818H268.564V166.483Z" fill="#F0F0F0"/>
<path d="M215.553 153.647H200.741V159.092H215.553V153.647Z" fill="#3F3D56"/>
<path d="M272.462 173.874H200.741V163.76H272.462V173.874ZM201.521 173.096H271.682V164.538H201.521V173.096Z" fill="#3F3D56"/>
<path d="M261.158 194.489H212.045V183.598H261.158V194.489ZM212.824 193.712H260.379V184.376H212.824V193.712Z" fill="#3F3D56"/>
<path d="M270.513 140.421C270.513 141.222 270.265 142.003 269.804 142.659C269.342 143.314 268.689 143.811 267.934 144.082C267.179 144.353 266.359 144.385 265.585 144.173C264.811 143.961 264.121 143.516 263.61 142.899L263.606 142.895C263.233 142.444 262.967 141.915 262.828 141.347C262.688 140.78 262.679 140.188 262.8 139.616C262.921 139.044 263.17 138.507 263.528 138.044C263.886 137.581 264.344 137.205 264.868 136.943C265.392 136.682 265.968 136.541 266.554 136.532C267.139 136.523 267.719 136.646 268.251 136.892C268.783 137.137 269.252 137.499 269.624 137.951C269.996 138.402 270.261 138.932 270.4 139.5C270.4 139.5 270.4 139.501 270.4 139.501C270.401 139.502 270.401 139.502 270.401 139.502C270.402 139.503 270.402 139.503 270.402 139.503C270.403 139.503 270.403 139.503 270.404 139.503C270.476 139.804 270.513 140.112 270.513 140.421Z" fill="url(#paint8_linear)"/>
<path opacity="0.1" d="M270.513 140.421C270.513 141.222 270.265 142.003 269.804 142.659C269.342 143.314 268.689 143.811 267.934 144.082C267.179 144.353 266.359 144.385 265.585 144.173C264.811 143.961 264.121 143.516 263.61 142.899L263.606 142.895C263.534 142.595 263.497 142.287 263.497 141.977C263.497 141.177 263.745 140.395 264.206 139.74C264.668 139.085 265.321 138.588 266.076 138.317C266.831 138.046 267.651 138.014 268.425 138.226C269.199 138.437 269.889 138.882 270.4 139.5C270.4 139.5 270.4 139.501 270.4 139.501C270.4 139.502 270.401 139.502 270.401 139.502C270.401 139.503 270.402 139.503 270.402 139.503C270.403 139.503 270.403 139.503 270.404 139.503C270.476 139.804 270.513 140.112 270.513 140.421Z" fill="black"/>
<path d="M268.174 146.645C270.327 146.645 272.072 144.904 272.072 142.755C272.072 140.607 270.327 138.865 268.174 138.865C266.022 138.865 264.276 140.607 264.276 142.755C264.276 144.904 266.022 146.645 268.174 146.645Z" fill="url(#paint9_linear)"/>
<path d="M270.513 169.984C270.513 170.785 270.265 171.566 269.804 172.221C269.342 172.876 268.689 173.373 267.934 173.644C267.179 173.915 266.359 173.947 265.585 173.735C264.811 173.524 264.121 173.079 263.61 172.462L263.606 172.458C263.233 172.007 262.967 171.478 262.828 170.91C262.688 170.342 262.679 169.75 262.8 169.178C262.921 168.607 263.17 168.069 263.528 167.607C263.886 167.144 264.344 166.768 264.868 166.506C265.392 166.244 265.968 166.103 266.554 166.094C267.139 166.086 267.719 166.208 268.251 166.454C268.783 166.7 269.252 167.062 269.624 167.513C269.996 167.965 270.261 168.494 270.4 169.062C270.4 169.062 270.4 169.063 270.4 169.063C270.401 169.064 270.401 169.064 270.401 169.065C270.402 169.065 270.402 169.065 270.402 169.066C270.403 169.066 270.403 169.066 270.404 169.066C270.476 169.367 270.513 169.675 270.513 169.984Z" fill="url(#paint10_linear)"/>
<path opacity="0.1" d="M270.513 169.984C270.513 170.785 270.265 171.566 269.804 172.221C269.342 172.876 268.689 173.373 267.934 173.644C267.179 173.915 266.359 173.947 265.585 173.735C264.811 173.524 264.121 173.079 263.61 172.462L263.606 172.458C263.534 172.157 263.497 171.849 263.497 171.54C263.497 170.739 263.745 169.958 264.206 169.303C264.668 168.648 265.321 168.151 266.076 167.88C266.831 167.608 267.651 167.577 268.425 167.788C269.199 168 269.889 168.445 270.4 169.062C270.4 169.062 270.4 169.063 270.4 169.063C270.4 169.064 270.401 169.064 270.401 169.065C270.401 169.065 270.402 169.065 270.402 169.066C270.403 169.066 270.403 169.066 270.404 169.066C270.476 169.367 270.513 169.675 270.513 169.984Z" fill="black"/>
<path d="M268.174 176.207C270.327 176.207 272.072 174.466 272.072 172.318C272.072 170.169 270.327 168.428 268.174 168.428C266.022 168.428 264.276 170.169 264.276 172.318C264.276 174.466 266.022 176.207 268.174 176.207Z" fill="url(#paint11_linear)"/>
<path d="M202.69 18.671H182.421V38.8979H202.69V18.671Z" fill="#F0F0F0"/>
<path d="M261.548 33.4522C260.623 33.4522 259.718 33.1784 258.949 32.6655C258.18 32.1526 257.581 31.4236 257.227 30.5707C256.873 29.7178 256.78 28.7793 256.96 27.8738C257.141 26.9684 257.586 26.1367 258.24 25.4839C258.895 24.8311 259.728 24.3865 260.635 24.2064C261.543 24.0263 262.483 24.1187 263.338 24.472C264.193 24.8253 264.923 25.4236 265.437 26.1912C265.951 26.9588 266.225 27.8613 266.225 28.7845C266.224 30.022 265.731 31.2084 264.854 32.0835C263.977 32.9586 262.788 33.4508 261.548 33.4522ZM261.548 24.8947C260.777 24.8947 260.023 25.1228 259.382 25.5502C258.741 25.9776 258.242 26.5851 257.947 27.2959C257.652 28.0067 257.575 28.7888 257.725 29.5433C257.875 30.2979 258.247 30.991 258.792 31.535C259.337 32.0789 260.031 32.4494 260.787 32.5995C261.544 32.7496 262.327 32.6726 263.04 32.3782C263.752 32.0837 264.361 31.5852 264.789 30.9455C265.217 30.3058 265.446 29.5538 265.446 28.7845C265.445 27.7532 265.034 26.7645 264.303 26.0353C263.572 25.306 262.581 24.8958 261.548 24.8947Z" fill="#3F3D56"/>
<path d="M158.644 98.4117H148.509V88.2982H158.644V98.4117ZM149.289 97.6337H157.864V89.0761H149.289V97.6337Z" fill="#3F3D56"/>
<path d="M313 173.874H302.865V163.76H313V173.874ZM303.645 173.096H312.22V164.538H303.645V173.096Z" fill="#3F3D56"/>
<path d="M113.04 106.061L114.779 106.996L120.697 110.179L130.25 115.316L135.818 105.007C136.342 104.039 136.67 102.976 136.783 101.881C136.895 100.786 136.79 99.6796 136.473 98.625C136.157 97.5704 135.635 96.5885 134.938 95.7354C134.24 94.8823 133.381 94.1748 132.41 93.6534C130.333 92.5345 127.955 92.1022 125.616 92.4188C123.278 92.7354 121.101 93.7846 119.398 95.4152L119.395 95.4181C118.557 96.221 117.851 97.1494 117.3 98.17L113.04 106.061Z" fill="#2F2E41"/>
<path d="M139.115 211.191L137.948 224.004L133.571 224.586L130.653 210.026L139.115 211.191Z" fill="#FFB8B8"/>
<path d="M132.404 224.586C132.404 224.586 137.948 221.674 139.116 224.004C139.116 224.004 138.24 230.993 141.742 231.866C145.243 232.74 146.703 238.855 141.742 239.437C136.781 240.02 133.571 238.273 131.82 238.273C130.07 238.273 131.82 232.157 131.82 232.157L132.404 224.586Z" fill="#2F2E41"/>
<path d="M103.807 211.191L104.974 224.004L109.351 224.586L112.269 210.026L103.807 211.191Z" fill="#FFB8B8"/>
<path d="M110.518 224.586C110.518 224.586 104.974 221.674 103.807 224.004C103.807 224.004 104.682 230.993 101.181 231.866C97.6788 232.74 96.2198 238.855 101.181 239.437C106.141 240.02 109.351 238.273 111.102 238.273C112.853 238.273 111.102 232.157 111.102 232.157L110.518 224.586Z" fill="#2F2E41"/>
<path d="M127.735 108.397C131.925 108.397 135.322 105.007 135.322 100.826C135.322 96.6443 131.925 93.2545 127.735 93.2545C123.545 93.2545 120.148 96.6443 120.148 100.826C120.148 105.007 123.545 108.397 127.735 108.397Z" fill="#FFB8B8"/>
<path d="M103.515 115.677L109.643 125.287L116.938 124.704L128.902 125.578C128.902 125.578 130.032 123.324 130.954 121.131C131.459 120.036 131.847 118.891 132.112 117.715C132.404 115.677 128.319 113.639 128.319 113.639C128.319 113.639 128.158 113.609 127.89 113.545C127.534 113.461 126.985 113.321 126.384 113.117C125.027 112.657 123.396 111.877 123.066 110.727C122.483 108.688 126.86 105.776 126.86 105.776L121.607 100.826C121.607 100.826 116.941 107.293 111.274 108.767C110.946 108.853 110.613 108.921 110.276 108.971C110.259 108.973 110.244 108.976 110.227 108.979C104.099 109.853 103.515 115.677 103.515 115.677Z" fill="#FFB8B8"/>
<path d="M106.725 113.056L103.515 115.677C103.515 115.677 100.889 128.199 101.764 131.693C102.64 135.187 101.472 138.391 101.472 138.973C101.472 139.555 98.846 161.395 98.846 161.395C98.846 161.395 93.5935 173.044 99.1378 171.879C104.682 170.714 102.64 159.066 102.64 159.066L109.351 138.682V121.501L106.725 113.056Z" fill="#FFB8B8"/>
<path d="M129.778 115.386L132.112 117.133L133.279 141.594L142.034 162.56C142.034 162.56 148.453 172.752 144.368 173.044C140.283 173.335 137.656 162.56 137.656 162.56L129.778 142.467L128.61 122.957L129.778 115.386Z" fill="#FFB8B8"/>
<path d="M115.187 117.133C115.187 117.133 121.023 121.21 130.361 119.754C130.361 119.754 132.987 124.995 131.528 127.907C130.069 130.819 133.279 137.808 133.863 138.682C134.446 139.555 141.158 157.61 143.492 177.12C145.827 196.631 152.247 210.026 146.702 211.773C141.158 213.52 129.778 215.559 128.61 213.812C127.443 212.064 125.692 168.676 125.692 168.676L122.482 185.274C122.482 185.274 126.859 213.52 123.65 214.103C120.44 214.685 100.305 212.938 100.889 209.444C101.472 205.949 107.308 187.604 107.308 187.604C107.308 187.604 107.017 150.912 112.853 143.923C112.853 143.923 115.187 140.138 111.977 135.187C108.767 130.237 109.059 122.375 109.059 122.375C109.059 122.375 111.394 122.375 115.187 117.133Z" fill="#2F2E41"/>
<path d="M110.276 108.971L115.187 119.754L116.354 119.172L111.274 108.767L110.276 108.971Z" fill="#2F2E41"/>
<path d="M126.384 113.117L130.07 121.21L130.954 121.131L130.653 119.754L127.89 113.545C127.534 113.461 126.985 113.321 126.384 113.117Z" fill="#2F2E41"/>
<path d="M114.779 106.996C115.059 107.897 115.6 108.695 116.333 109.291C117.066 109.886 117.959 110.253 118.9 110.344C119.841 110.436 120.788 110.248 121.623 109.805C122.457 109.361 123.142 108.682 123.591 107.852C119.9 103.036 123.066 100.01 129.063 97.7215C129.514 96.8849 129.706 95.9332 129.614 94.9873C129.522 94.0415 129.151 93.1443 128.546 92.41C126.893 92.1991 125.214 92.3594 123.631 92.8794C122.048 93.3993 120.602 94.2657 119.398 95.4152L119.395 95.4181L115.135 103.304C114.831 103.864 114.644 104.48 114.582 105.114C114.521 105.748 114.588 106.388 114.779 106.996Z" fill="#2F2E41"/>
<path d="M123.212 103.447C123.776 103.447 124.233 102.664 124.233 101.699C124.233 100.734 123.776 99.9521 123.212 99.9521C122.648 99.9521 122.191 100.734 122.191 101.699C122.191 102.664 122.648 103.447 123.212 103.447Z" fill="#FFB8B8"/>
<path d="M126.256 98.8485L135.027 102.815L136.635 99.2736C136.358 97.9795 135.778 96.7691 134.943 95.7414L128.905 93.0128L126.256 98.8485Z" fill="#2F2E41"/>
<path d="M147.34 176.985C149.493 176.985 151.238 175.244 151.238 173.096C151.238 170.947 149.493 169.206 147.34 169.206C145.187 169.206 143.442 170.947 143.442 173.096C143.442 175.244 145.187 176.985 147.34 176.985Z" fill="url(#paint12_linear)"/>
<path d="M22.201 200.109C23.6079 200.109 24.7484 198.971 24.7484 197.567C24.7484 196.163 23.6079 195.025 22.201 195.025C20.7941 195.025 19.6536 196.163 19.6536 197.567C19.6536 198.971 20.7941 200.109 22.201 200.109Z" fill="#FF6584"/>
<path d="M35.0712 210.816H34.2916V239.76H35.0712V210.816Z" fill="#3F3D56"/>
<path d="M34.6816 214.909C36.9469 214.909 38.7833 213.076 38.7833 210.816C38.7833 208.555 36.9469 206.723 34.6816 206.723C32.4163 206.723 30.58 208.555 30.58 210.816C30.58 213.076 32.4163 214.909 34.6816 214.909Z" fill="#3F3D56"/>
<path d="M34.6815 228.655C34.6815 228.655 34.0955 216.078 22.0835 217.54L34.6815 228.655Z" fill="#3F3D56"/>
</g>
<defs>
<linearGradient id="paint0_linear" x1="95.1084" y1="171.929" x2="103.265" y2="171.929" gradientUnits="userSpaceOnUse">
<stop stop-color="#C33764"/>
<stop offset="0.0001" stop-color="#EE0979"/>
<stop offset="1" stop-color="#1D2671"/>
</linearGradient>
<linearGradient id="paint1_linear" x1="84.1943" y1="171.929" x2="92.3508" y2="171.929" gradientUnits="userSpaceOnUse">
<stop stop-color="#C33764"/>
<stop offset="0.0001" stop-color="#EE0979"/>
<stop offset="1" stop-color="#1D2671"/>
</linearGradient>
<linearGradient id="paint2_linear" x1="73.2802" y1="171.929" x2="81.4366" y2="171.929" gradientUnits="userSpaceOnUse">
<stop stop-color="#C33764"/>
<stop offset="0.0001" stop-color="#EE0979"/>
<stop offset="1" stop-color="#1D2671"/>
</linearGradient>
<linearGradient id="paint3_linear" x1="62.3661" y1="171.929" x2="70.5226" y2="171.929" gradientUnits="userSpaceOnUse">
<stop stop-color="#C33764"/>
<stop offset="0.0001" stop-color="#EE0979"/>
<stop offset="1" stop-color="#1D2671"/>
</linearGradient>
<linearGradient id="paint4_linear" x1="51.452" y1="171.929" x2="59.6085" y2="171.929" gradientUnits="userSpaceOnUse">
<stop stop-color="#C33764"/>
<stop offset="0.0001" stop-color="#EE0979"/>
<stop offset="1" stop-color="#1D2671"/>
</linearGradient>
<linearGradient id="paint5_linear" x1="209.706" y1="191.767" x2="260.276" y2="191.767" gradientUnits="userSpaceOnUse">
<stop stop-color="#C33764"/>
<stop offset="0.0001" stop-color="#EE0979"/>
<stop offset="1" stop-color="#1D2671"/>
</linearGradient>
<linearGradient id="paint6_linear" x1="252.973" y1="81.6856" x2="285.599" y2="81.6856" gradientUnits="userSpaceOnUse">
<stop stop-color="#C33764"/>
<stop offset="0.0001" stop-color="#EE0979"/>
<stop offset="1" stop-color="#1D2671"/>
</linearGradient>
<linearGradient id="paint7_linear" x1="249.464" y1="85.9643" x2="271.487" y2="85.9643" gradientUnits="userSpaceOnUse">
<stop stop-color="#C33764"/>
<stop offset="0.0001" stop-color="#EE0979"/>
<stop offset="1" stop-color="#1D2671"/>
</linearGradient>
<linearGradient id="paint8_linear" x1="262.716" y1="140.421" x2="270.874" y2="140.421" gradientUnits="userSpaceOnUse">
<stop stop-color="#C33764"/>
<stop offset="0.0001" stop-color="#EE0979"/>
<stop offset="1" stop-color="#1D2671"/>
</linearGradient>
<linearGradient id="paint9_linear" x1="264.276" y1="142.755" x2="272.433" y2="142.755" gradientUnits="userSpaceOnUse">
<stop stop-color="#C33764"/>
<stop offset="0.0001" stop-color="#EE0979"/>
<stop offset="1" stop-color="#1D2671"/>
</linearGradient>
<linearGradient id="paint10_linear" x1="262.716" y1="169.984" x2="270.874" y2="169.984" gradientUnits="userSpaceOnUse">
<stop stop-color="#C33764"/>
<stop offset="0.0001" stop-color="#EE0979"/>
<stop offset="1" stop-color="#1D2671"/>
</linearGradient>
<linearGradient id="paint11_linear" x1="264.276" y1="172.318" x2="272.433" y2="172.318" gradientUnits="userSpaceOnUse">
<stop stop-color="#C33764"/>
<stop offset="0.0001" stop-color="#EE0979"/>
<stop offset="1" stop-color="#1D2671"/>
</linearGradient>
<linearGradient id="paint12_linear" x1="143.442" y1="173.096" x2="151.599" y2="173.096" gradientUnits="userSpaceOnUse">
<stop stop-color="#C33764"/>
<stop offset="0.0001" stop-color="#EE0979"/>
<stop offset="1" stop-color="#1D2671"/>
</linearGradient>
<clipPath id="clip0">
<rect width="313" height="240" fill="white"/>
</clipPath>
</defs>
</svg>
